<?xml version="1.0" encoding="UTF-8" standalone="no"?>
<svg
   xmlns:osb="http://www.openswatchbook.org/uri/2009/osb"
   xmlns:dc="http://purl.org/dc/elements/1.1/"
   xmlns:cc="http://creativecommons.org/ns#"
   xmlns:rdf="http://www.w3.org/1999/02/22-rdf-syntax-ns#"
   xmlns:svg="http://www.w3.org/2000/svg"
   xmlns="http://www.w3.org/2000/svg"
   xmlns:xlink="http://www.w3.org/1999/xlink"
   xmlns:sodipodi="http://sodipodi.sourceforge.net/DTD/sodipodi-0.dtd"
   xmlns:inkscape="http://www.inkscape.org/namespaces/inkscape"
   width="40mm"
   height="9mm"
   viewBox="0 0 40 9"
   version="1.1"
   id="svg8"
   sodipodi:docname="Logo.svg"
   inkscape:version="0.92.2 (5c3e80d, 2017-08-06)">
  <sodipodi:namedview
     pagecolor="#ffffff"
     bordercolor="#666666"
     borderopacity="1"
     objecttolerance="10"
     gridtolerance="10"
     guidetolerance="10"
     inkscape:pageopacity="0"
     inkscape:pageshadow="2"
     inkscape:window-width="1366"
     inkscape:window-height="705"
     id="namedview29"
     showgrid="false"
     inkscape:zoom="1.6876126"
     inkscape:cx="87.898038"
     inkscape:cy="37.719415"
     inkscape:window-x="-8"
     inkscape:window-y="-8"
     inkscape:window-maximized="1"
     inkscape:current-layer="svg8"
     width="41mm" />
  <defs
     id="defs2">
    <linearGradient
       id="linearGradient4663">
      <stop
         style="stop-color:#808080;stop-opacity:0.5576902"
         offset="0"
         id="stop4659" />
      <stop
         style="stop-color:#666666;stop-opacity:0;"
         offset="1"
         id="stop4661" />
    </linearGradient>
    <linearGradient
       id="linearGradient4653"
       osb:paint="gradient">
      <stop
         style="stop-color:#b3b3b3;stop-opacity:1;"
         offset="0"
         id="stop4649" />
      <stop
         style="stop-color:#b3b3b3;stop-opacity:0;"
         offset="1"
         id="stop4651" />
    </linearGradient>
    <linearGradient
       id="linearGradient4631">
      <stop
         style="stop-color:#ff0000;stop-opacity:1"
         offset="0"
         id="stop4627" />
      <stop
         style="stop-color:#1a1a1a;stop-opacity:0;"
         offset="1"
         id="stop4629" />
    </linearGradient>
    <radialGradient
       xlink:href="#linearGradient4631"
       id="radialGradient4635"
       gradientUnits="userSpaceOnUse"
       gradientTransform="matrix(1,0,0,0.39781021,-3.9816932,-2.1967869)"
       cx="48.066582"
       cy="104.58615"
       fx="48.066582"
       fy="104.58615"
       r="54.549198" />
    <linearGradient
       xlink:href="#linearGradient4663"
       id="linearGradient4783"
       gradientUnits="userSpaceOnUse"
       x1="49.917439"
       y1="66.100868"
       x2="116.66361"
       y2="79.201385"
       gradientTransform="matrix(0.4702381,0,0,0.40454546,-1.0969384,-19.869922)" />
  </defs>
  <metadata
     id="metadata5">
    <rdf:RDF>
      <cc:Work
         rdf:about="">
        <dc:format>image/svg+xml</dc:format>
        <dc:type
           rdf:resource="http://purl.org/dc/dcmitype/StillImage" />
        <dc:title></dc:title>
      </cc:Work>
    </rdf:RDF>
  </metadata>
  <g
     transform="matrix(0.75388105,0,0,0.51185042,-4.8115016,-1.6177876)"
     id="layer1">
    <rect
       style="opacity:0;fill:#1a1a1a;stroke-width:0.26458332"
       id="rect126"
       width="100.33867"
       height="43.798626"
       x="12.343248"
       y="7.5309057" />
    <rect
       style="opacity:0;fill:#1a1a1a;stroke-width:0.26458332"
       id="rect4623"
       width="33.44622"
       height="27.473682"
       x="145.72998"
       y="19.077814" />
    <rect
       style="opacity:0;fill:url(#radialGradient4635);fill-opacity:1;stroke-width:0.26458332"
       id="rect4625"
       width="109.0984"
       height="43.400455"
       x="12.343248"
       y="7.5309057" />
    <rect
       style="opacity:0;fill:#ff0000;fill-opacity:1;stroke-width:0.26458332"
       id="rect4637"
       width="60.919903"
       height="35.038898"
       x="39.020592"
       y="132.95424" />
    <rect
       style="opacity:0.55;fill:url(#linearGradient4783);fill-opacity:1;stroke-width:0.11539979"
       id="rect4639"
       width="47.183064"
       height="17.718534"
       x="6.5796709"
       y="3.3113694" />
    <path
       style="opacity:0;fill:#000000;fill-opacity:1;stroke-width:0.26458332"
       id="path4861"
       d="m 25.475325,65.377043 c -0.0678,1.177737 -0.05546,2.359372 -0.04406,3.538681 0.01289,0.940966 0.02355,1.881952 0.02898,2.822993 0.0038,0.80111 0.0039,1.602232 0.004,2.40335 2e-6,0.79438 -1.33e-4,1.58876 -2e-4,2.383142 -0.0025,0.740937 -0.244608,1.44132 -0.463727,2.139042 -0.2159,0.720421 -0.589907,1.379469 -0.938756,2.041655 -0.371129,0.885185 -0.821899,1.731648 -1.273623,2.57755 -0.419726,0.755449 -0.93575,1.432435 -1.62384,1.957527 -2.053388,1.24636 -2.04471,1.243836 -5.925144,3.444053 -0.262479,0.148828 -0.397348,0.09277 -0.674753,0.192846 -0.198597,0.07164 -0.379504,0.186174 -0.575952,0.263517 -0.679188,0.269182 -1.359583,0.466837 -2.087237,0.564986 0,0 4.965823,-3.744857 4.965823,-3.744857 v 0 c 0.699722,-0.159451 1.364176,-0.419049 2.029825,-0.684143 0.297978,-0.124833 0.610786,-0.209487 0.90095,-0.352475 0.09902,-0.04879 0.38461,-0.216869 0.289222,-0.161312 -5.204064,3.031141 -6.6222,4.013708 -4.72632,2.714784 0.794295,-0.355817 1.309929,-0.97106 1.799678,-1.676112 0.465153,-0.816252 0.919943,-1.648766 1.241442,-2.533403 0.306069,-0.655897 0.669723,-1.281489 0.976729,-1.936832 0.177115,-0.665703 0.434749,-1.30265 0.548914,-1.985701 -6.7e-5,-0.794314 -2.03e-4,-1.588627 -2e-4,-2.382938 1.3e-4,-0.802473 1.84e-4,-1.604949 0.004,-2.407415 0.0055,-0.950886 0.01614,-1.901713 0.02898,-2.852525 0.01115,-1.164297 0.02508,-2.331165 -0.04406,-3.493784 0,0 5.559348,-2.832629 5.559348,-2.832629 z"
       inkscape:connector-curvature="0" />
    <path
       style="opacity:1;fill:#000000;fill-opacity:1;stroke-width:0.26458332"
       id="path4871"
       d="m 14.615543,7.2612767 c 0.04228,0.563353 0.104931,1.124754 0.143419,1.688473 0.0077,0.462584 0.183992,0.887759 0.302985,1.3271313 0.09802,0.387771 0.117225,0.787903 0.129261,1.185778 0.0078,0.397545 0.0054,0.7952 0.0044,1.192797 -0.0011,0.398175 -0.0015,0.796351 -0.0017,1.194525 -1.87e-4,0.39818 -1.77e-4,0.796359 -1.78e-4,1.194539 0.02811,0.369443 -0.05305,0.703894 -0.216722,1.030668 -0.207804,0.361789 -0.515422,0.647779 -0.805742,0.941948 -0.329288,0.296829 -0.679656,0.568783 -1.019677,0.852829 -0.967822,0.767279 -2.033196,1.231271 -3.1590326,1.873488 -0.05836,0.03329 -0.237706,0.125191 -0.179528,0.0916 2.7032066,-1.560996 3.2888776,-1.951365 2.3423726,-1.327959 -0.940797,0.542316 -1.887379,1.074724 -2.8223926,1.626954 -0.835469,0.493438 1.6809636,-0.969719 2.5237416,-1.450567 0.04721,-0.02694 -0.08965,0.06171 -0.136829,0.08871 -0.939233,0.537605 -1.8805346,1.071592 -2.8221666,1.604984 -0.04961,0.0281 -0.200866,0.107929 -0.151475,0.07945 0.833045,-0.480391 1.6683646,-0.956824 2.5025476,-1.435238 -3.6687346,2.106306 -3.7803696,2.17056 -0.335303,0.192077 0,0 -2.8961666,1.134433 -2.8961666,1.134433 v 0 c 3.6423036,-2.131695 3.7572976,-2.192475 0.329017,-0.209786 0.944337,-0.54315 1.8867666,-1.089633 2.8330126,-1.629452 0.05125,-0.02924 0.210057,-0.107315 0.15913,-0.07752 -0.841192,0.492143 -1.6873696,0.975714 -2.5303376,1.46481 -0.04716,0.02736 0.09575,-0.05221 0.142892,-0.0796 0.936358,-0.544105 1.8754246,-1.083607 2.8075796,-1.634879 0.83062,-0.491226 -1.668644,0.969819 -2.5029656,1.454732 1.4245166,-0.894964 6.1280476,-3.566806 0.676811,-0.389837 -0.116238,0.06774 0.4769276,-0.266478 0.3354226,-0.224489 0.358434,-0.256955 0.684932,-0.554474 1.028768,-0.831347 0.307232,-0.245374 0.576433,-0.546536 0.829006,-0.845981 0.182379,-0.271246 0.32642,-0.551355 0.29973,-0.889498 -2e-6,-0.398229 -1.6e-5,-0.796462 1.17e-4,-1.194691 1.8e-4,-0.398328 4.76e-4,-0.796655 0.0014,-1.194983 8.73e-4,-0.394864 0.003,-0.789752 -0.0017,-1.1846 -0.0076,-0.376323 -0.01715,-0.755055 -0.09583,-1.124649 -0.110165,-0.463291 -0.279026,-0.912225 -0.310305,-1.392092 -0.02062,-0.5513733 -0.04818,-1.1061493 -0.162326,-1.6474463 0,0 2.758709,-1.455304 2.758709,-1.455304 z"
       inkscape:connector-curvature="0" />
    <path
       style="opacity:1;fill:#000000;fill-opacity:1;stroke-width:0.26458332"
       id="path4877"
       d="m 14.81306,5.6292787 c 0.536807,-0.210867 1.095085,-0.353718 1.663524,-0.445494 0.444208,-0.06328 0.893407,-0.06829 1.341188,-0.07074 0.420518,-0.02474 0.823126,0.01341 1.220652,0.153672 0.435261,0.142529 0.836689,0.384747 1.212943,0.643255 0.40473,0.271703 0.716833,0.639408 0.998365,1.031661 0.22307,0.341767 0.277064,0.738338 0.306888,1.13588 0.02983,0.405387 0.03112,0.801383 -0.105434,1.187429 -0.163552,0.383738 -0.38209,0.7371083 -0.650126,1.0557773 -0.266004,0.337042 -0.578991,0.630841 -0.874655,0.940774 -0.274989,0.304514 -0.587457,0.571161 -0.88062,0.857192 -0.263409,0.207282 -0.486757,0.457329 -0.728221,0.688014 -0.186153,0.233447 -0.452678,0.373743 -0.678212,0.562547 -3.319019,1.937543 -4.030316,2.346592 -0.242943,0.158715 0.0082,-0.0047 -0.186272,0.0122 -0.107598,0.153686 0.227769,0.269862 0.534202,0.481732 0.821333,0.687329 0.306663,0.241883 0.594812,0.504508 0.867616,0.783842 0.25394,0.234503 0.498531,0.482049 0.72775,0.741693 0.193823,0.327604 0.477745,0.524272 0.794565,0.713997 0.352867,0.19989 0.715933,0.338521 1.115195,0.407651 0.384088,0.134043 0.784108,0.193937 1.187749,0.225949 0.393779,0.0598 0.692745,-0.191799 1.02339,-0.358592 -4.56954,2.705504 -2.638007,1.683728 -1.770539,0.8119 0.04035,-0.05018 0.08069,-0.100351 0.121034,-0.150527 0,0 2.854089,-1.231191 2.854089,-1.231191 v 0 c -0.0375,0.05443 -0.07501,0.108863 -0.112509,0.163296 -0.70367,1.019318 -3.058104,2.073399 -3.519535,2.3514 -0.361751,0.186425 -0.716269,0.289975 -1.127683,0.213627 -0.409601,-0.0518 -0.808702,-0.145264 -1.206635,-0.254432 -0.414835,-0.106478 -0.80283,-0.277034 -1.174046,-0.490981 -0.338598,-0.20423 -0.625383,-0.456359 -0.847119,-0.787654 -0.234963,-0.249315 -0.476557,-0.492631 -0.723171,-0.730258 -0.262884,-0.263917 -0.534016,-0.519587 -0.825253,-0.752256 -0.319551,-0.241046 -0.675671,-0.450887 -0.925905,-0.768342 -0.05323,-0.08486 -0.121244,-0.180766 -0.143757,-0.279873 -0.01334,-0.05874 -0.01111,-0.263562 0.05837,-0.306996 0.914246,-0.571564 1.863017,-1.085993 2.790675,-1.635525 0.845145,-0.500653 -1.695423,0.99259 -2.543134,1.488887 0.242635,-0.159438 0.452266,-0.363524 0.70537,-0.508852 0.21203,-0.265057 0.478036,-0.488108 0.721038,-0.723826 0.324038,-0.251769 0.608531,-0.557265 0.909223,-0.835951 0.289939,-0.311817 0.597779,-0.600398 0.876382,-0.921327 0.253844,-0.306392 0.516795,-0.592574 0.680324,-0.963437 0.0474,-0.10259 0.111529,-0.19834 0.146118,-0.305925 0.07808,-0.242858 0.0118,-0.5094763 0.02466,-0.7580583 -0.01775,-0.341185 -0.04038,-0.68835 -0.222969,-0.987853 -0.252249,-0.36998 -0.531318,-0.70847 -0.922621,-0.940705 -0.36763,-0.23059 -0.748982,-0.449622 -1.1723,-0.559464 -0.386076,-0.08662 -0.774307,-0.09233 -1.169004,-0.07825 -0.432073,0.0069 -0.865501,0.02096 -1.291869,0.09796 -0.572736,0.112117 -1.125746,0.28843 -1.672395,0.492003 0,0 2.469807,-1.901632 2.469807,-1.901632 z"
       inkscape:connector-curvature="0" />
    <path
       style="opacity:1;fill:#000000;fill-opacity:1;stroke-width:0.26458332"
       id="path4871-0"
       d="m 25.606566,7.2585437 c 0.04228,0.563353 0.104931,1.124754 0.143419,1.688473 0.0077,0.462584 0.183992,0.887759 0.302985,1.3271313 0.09802,0.387771 0.117225,0.787903 0.129261,1.185778 0.0078,0.397545 0.0054,0.7952 0.0044,1.192797 -0.0011,0.398175 -0.0015,0.796351 -0.0017,1.194525 -1.87e-4,0.39818 -1.77e-4,0.796359 -1.78e-4,1.194539 0.02811,0.369442 -0.05305,0.703893 -0.216722,1.030667 -0.207804,0.361789 -0.515422,0.647779 -0.805742,0.941948 -0.329288,0.296829 -0.679656,0.568783 -1.019677,0.85283 -0.967822,0.767279 -2.033196,1.23127 -3.159033,1.873487 -0.05836,0.03329 -0.237706,0.125191 -0.179528,0.0916 2.7032,-1.560996 3.288871,-1.951365 2.342366,-1.327959 -0.940797,0.542317 -1.887379,1.074724 -2.822393,1.626955 -0.835469,0.493437 1.680964,-0.96972 2.523742,-1.450567 0.04721,-0.02694 -0.08965,0.06171 -0.136829,0.08871 -0.939233,0.537605 -1.880535,1.071591 -2.822167,1.604983 -0.04961,0.0281 -0.200866,0.10793 -0.151475,0.07945 0.833045,-0.480391 1.668365,-0.956823 2.502548,-1.435237 -3.668735,2.106305 -3.78037,2.170559 -0.335303,0.192076 0,0 -2.896167,1.134433 -2.896167,1.134433 v 0 c 3.642304,-2.131695 3.757298,-2.192475 0.329017,-0.209786 0.944337,-0.543149 1.886767,-1.089633 2.833013,-1.629452 0.05125,-0.02924 0.210057,-0.107315 0.15913,-0.07752 -0.841192,0.492143 -1.68737,0.975714 -2.530338,1.46481 -0.04716,0.02736 0.09575,-0.05221 0.142892,-0.0796 0.936358,-0.544105 1.875425,-1.083608 2.80758,-1.63488 0.83062,-0.491226 -1.668644,0.969819 -2.502966,1.454732 1.424517,-0.894964 6.128048,-3.566806 0.676811,-0.389837 -0.116238,0.06774 0.476928,-0.266478 0.335423,-0.224489 0.358434,-0.256955 0.684932,-0.554474 1.028768,-0.831347 0.307232,-0.245374 0.576433,-0.546536 0.829006,-0.84598 0.182379,-0.271247 0.32642,-0.551356 0.29973,-0.889499 -2e-6,-0.398229 -1.6e-5,-0.796462 1.17e-4,-1.19469 1.8e-4,-0.398328 4.76e-4,-0.796655 0.0014,-1.194983 8.73e-4,-0.394864 0.003,-0.789752 -0.0017,-1.1846 -0.0076,-0.376323 -0.01715,-0.755055 -0.09583,-1.124649 -0.110169,-0.46329 -0.27903,-0.912224 -0.310309,-1.392091 -0.02062,-0.5513733 -0.04818,-1.1061493 -0.162326,-1.6474463 0,0 2.758709,-1.455304 2.758709,-1.455304 z"
       inkscape:connector-curvature="0" />
    <path
       style="opacity:1;fill:#000000;fill-opacity:1;stroke-width:0.26458332"
       id="path4877-4"
       d="m 25.804083,5.6265457 c 0.536807,-0.210867 1.095085,-0.353718 1.663524,-0.445494 0.444208,-0.06328 0.893407,-0.06829 1.341188,-0.07074 0.420518,-0.02474 0.823126,0.01341 1.220652,0.153672 0.435261,0.142529 0.836689,0.384747 1.212943,0.643255 0.40473,0.271703 0.716833,0.639408 0.998365,1.031661 0.22307,0.341767 0.277064,0.738338 0.306888,1.13588 0.02983,0.405387 0.03112,0.801383 -0.105434,1.187429 -0.163552,0.383738 -0.38209,0.737108 -0.650126,1.0557773 -0.266004,0.337042 -0.578991,0.630841 -0.874655,0.940774 -0.274989,0.304514 -0.587457,0.571161 -0.88062,0.857192 -0.263409,0.207282 -0.486757,0.457329 -0.728221,0.688014 -0.186153,0.233447 -0.452678,0.373743 -0.678212,0.562547 -3.319019,1.937542 -4.030316,2.346591 -0.242943,0.158715 0.0082,-0.0047 -0.186272,0.0122 -0.107598,0.153686 0.227769,0.269862 0.534202,0.481732 0.821333,0.687329 0.306663,0.241883 0.594812,0.504508 0.867616,0.783841 0.25394,0.234503 0.498531,0.482049 0.72775,0.741694 0.193823,0.327603 0.477745,0.524271 0.794565,0.713996 0.352867,0.19989 0.715933,0.338521 1.115195,0.407651 0.384088,0.134043 0.784108,0.193937 1.187749,0.22595 0.393779,0.0598 0.692745,-0.1918 1.02339,-0.358593 -4.56954,2.705504 -2.638007,1.683729 -1.770539,0.8119 0.04035,-0.05018 0.08069,-0.100351 0.121034,-0.150527 0,0 2.854089,-1.231191 2.854089,-1.231191 v 0 c -0.0375,0.05443 -0.07501,0.108863 -0.112509,0.163296 -0.70367,1.019319 -3.058104,2.073399 -3.519535,2.3514 -0.361751,0.186425 -0.716269,0.289975 -1.127683,0.213628 -0.409601,-0.0518 -0.808702,-0.145265 -1.206635,-0.254432 -0.414835,-0.106479 -0.80283,-0.277035 -1.174046,-0.490981 -0.338598,-0.20423 -0.625383,-0.45636 -0.847119,-0.787654 -0.234963,-0.249315 -0.476557,-0.492632 -0.723171,-0.730259 -0.262884,-0.263916 -0.534016,-0.519587 -0.825253,-0.752256 -0.319551,-0.241046 -0.675671,-0.450887 -0.925905,-0.768342 -0.05323,-0.08486 -0.121244,-0.180765 -0.143757,-0.279872 -0.01334,-0.05874 -0.01111,-0.263562 0.05837,-0.306996 0.914246,-0.571564 1.863017,-1.085993 2.790675,-1.635525 0.845145,-0.500653 -1.695423,0.99259 -2.543134,1.488887 0.242635,-0.159438 0.452266,-0.363524 0.70537,-0.508852 0.21203,-0.265057 0.478036,-0.488108 0.721038,-0.723826 0.324038,-0.251769 0.608531,-0.557265 0.909223,-0.835951 0.289939,-0.311817 0.597779,-0.600398 0.876382,-0.921327 0.253844,-0.306392 0.516795,-0.592574 0.680324,-0.963437 0.0474,-0.10259 0.111529,-0.19834 0.146118,-0.305925 0.07808,-0.242858 0.0118,-0.5094763 0.02466,-0.7580583 -0.01775,-0.341185 -0.04038,-0.68835 -0.222969,-0.987853 -0.252248,-0.36998 -0.531317,-0.70847 -0.92262,-0.940705 -0.36763,-0.23059 -0.748982,-0.449622 -1.1723,-0.559464 -0.386076,-0.08662 -0.774307,-0.09233 -1.169004,-0.07825 -0.432073,0.0069 -0.865501,0.02096 -1.291869,0.09796 -0.572736,0.112117 -1.125746,0.28843 -1.672395,0.492003 0,0 2.469807,-1.901632 2.469807,-1.901632 z"
       inkscape:connector-curvature="0" />
    <text
       xml:space="preserve"
       style="font-style:normal;font-weight:normal;font-size:10.58333302px;line-height:1.25;font-family:sans-serif;letter-spacing:0px;word-spacing:0px;fill:#1a1a1a;fill-opacity:1;stroke:none;stroke-width:0.26458332"
       x="32.449345"
       y="15.162761"
       id="text124-0"><tspan
         id="tspan122-6"
         x="32.449345"
         y="15.162761"
         style="font-style:normal;font-variant:normal;font-weight:normal;font-stretch:normal;font-size:3.88055563px;line-height:1;font-family:FrankRuehl;-inkscape-font-specification:FrankRuehl;fill:#1a1a1a;stroke-width:0.26458332">Studios. Com</tspan></text>
  </g>
</svg>
